<?xml version="1.0" encoding="utf-8"?>
<!-- Generator: Adobe Illustrator 14.0.0, SVG Export Plug-In . SVG Version: 6.00 Build 43363)  -->
<!DOCTYPE svg PUBLIC "-//W3C//DTD SVG 1.1//EN" "http://www.w3.org/Graphics/SVG/1.1/DTD/svg11.dtd">
<svg version="1.1" id="Layer_1" xmlns="http://www.w3.org/2000/svg" xmlns:xlink="http://www.w3.org/1999/xlink" x="0px" y="0px"
	 width="300px" height="300px" viewBox="0 0 300 300" enable-background="new 0 0 300 300" xml:space="preserve">
<path fill="#F78F20" d="M267.277,149.977c0-18.324-14.855-33.18-33.18-33.18h-4.327l3.06-3.062
	c12.958-12.957,12.958-33.966,0-46.922c-12.958-12.958-33.966-12.958-46.926,0l-3.059,3.06v-4.33
	c0-18.325-14.857-33.18-33.182-33.18c-18.325,0-33.179,14.855-33.179,33.18v4.33l-3.062-3.06c-12.956-12.96-33.965-12.958-46.923,0
	c-12.958,12.956-12.958,33.965,0,46.922l3.062,3.062h-4.33c-18.325,0-33.181,14.855-33.181,33.18
	c0,18.324,14.856,33.179,33.181,33.179h4.33L66.5,186.22c-12.958,12.956-12.958,33.965,0,46.921
	c6.478,6.479,14.97,9.718,23.46,9.718c8.493,0,16.984-3.238,23.463-9.718l3.062-3.062v4.332c0,18.324,14.854,33.181,33.179,33.181
	c18.324,0,33.182-14.856,33.182-33.181v-4.331l3.059,3.061c6.481,6.479,14.971,9.718,23.465,9.718c8.491,0,16.982-3.24,23.461-9.718
	c12.958-12.956,12.958-33.965,0-46.921l-3.06-3.063h4.327C252.422,183.156,267.277,168.301,267.277,149.977z"/>
</svg>
