<?xml version="1.0" encoding="utf-8"?>
<!-- Generator: Adobe Illustrator 14.0.0, SVG Export Plug-In . SVG Version: 6.00 Build 43363)  -->
<!DOCTYPE svg PUBLIC "-//W3C//DTD SVG 1.1//EN" "http://www.w3.org/Graphics/SVG/1.1/DTD/svg11.dtd">
<svg version="1.1" id="Layer_1" xmlns="http://www.w3.org/2000/svg" xmlns:xlink="http://www.w3.org/1999/xlink" x="0px" y="0px"
	 width="300px" height="300px" viewBox="0 0 300 300" enable-background="new 0 0 300 300" xml:space="preserve">
<path fill="#EF4035" d="M271.425,118.548c-3.34-10.697-12.919-17.938-23.726-17.938h-56.703l-17.521-56.117
	c-3.34-10.696-12.919-17.938-23.726-17.938c-10.807,0-20.385,7.242-23.726,17.938l-17.521,56.117H51.799
	c-10.808,0-20.386,7.242-23.727,17.938c-3.339,10.696,0.319,22.412,9.063,29.023l45.873,34.683l-17.522,56.115
	c-3.34,10.697,0.319,22.413,9.062,29.025c8.745,6.611,20.584,6.611,29.326,0l45.874-34.682l45.874,34.682
	c4.371,3.306,9.517,4.957,14.663,4.957c5.146,0,10.29-1.653,14.663-4.957c8.742-6.612,12.402-18.328,9.062-29.025l-17.523-56.115
	l45.874-34.683C271.106,140.96,274.765,129.244,271.425,118.548z"/>
</svg>
