<?xml version="1.0" encoding="utf-8"?>
<!-- Generator: Adobe Illustrator 14.0.0, SVG Export Plug-In . SVG Version: 6.00 Build 43363)  -->
<!DOCTYPE svg PUBLIC "-//W3C//DTD SVG 1.1//EN" "http://www.w3.org/Graphics/SVG/1.1/DTD/svg11.dtd">
<svg version="1.1" id="Layer_1" xmlns="http://www.w3.org/2000/svg" xmlns:xlink="http://www.w3.org/1999/xlink" x="0px" y="0px"
	 width="300px" height="300px" viewBox="0 0 300 300" enable-background="new 0 0 300 300" xml:space="preserve">
<path fill="#FEE900" d="M275.125,98.979c-24.711-19.044-45.591-42.087-62.055-68.486c-2.33-3.74-6.638-5.779-11.003-5.21
	c-30.764,3.986-62.256,2.438-92.301-4.54c-4.3-0.995-8.777,0.605-11.47,4.098C79.277,49.529,56.238,70.4,29.816,86.873
	c-3.742,2.333-5.778,6.636-5.209,11.009c4.017,30.928,2.492,61.982-4.534,92.313c-0.995,4.293,0.605,8.769,4.09,11.46
	c24.708,19.056,45.586,42.109,62.051,68.503c2.331,3.738,6.626,5.773,11.006,5.208c11.097-1.439,22.394-2.173,33.576-2.173
	c19.737,0,39.501,2.255,58.743,6.7c0.845,0.197,1.695,0.29,2.536,0.29c3.447,0,6.761-1.586,8.921-4.39
	c19.04-24.715,42.079-45.593,68.483-62.055c3.742-2.334,5.776-6.636,5.209-11.01c-4.018-30.899-2.492-61.954,4.533-92.291
	C280.216,106.148,278.616,101.669,275.125,98.979z"/>
</svg>
