<?xml version="1.0" encoding="utf-8"?>
<!-- Generator: Adobe Illustrator 13.0.0, SVG Export Plug-In . SVG Version: 6.00 Build 14948)  -->
<!DOCTYPE svg PUBLIC "-//W3C//DTD SVG 1.1//EN" "http://www.w3.org/Graphics/SVG/1.1/DTD/svg11.dtd">
<svg version="1.1" id="Layer_1" xmlns="http://www.w3.org/2000/svg" xmlns:xlink="http://www.w3.org/1999/xlink" x="400px" y="300px"
	 width="810px" height="600.5px" viewBox="0 0 810 600.5" enable-background="new 0 0 810 600.5" xml:space="preserve">
<path fill="none" stroke="#00AEEF" d="M5,72.5c0,0,0-72,72-72s72,0,72,0s72,0,72,72"/>
<path fill="none" stroke="#EC008C" d="M297,72.5c0,0,0-72,72-72s72,0,72,0s72,0,72,72"/>
<path fill="none" stroke="#FFF200" d="M589,72.5c0,0,0-72,72-72s72,0,72,0s72,0,72,72"/>
<path fill="none" stroke="#00AEEF" stroke-width="10" d="M5,178.1c0,0,0-72,72-72s72,0,72,0s72,0,72,72"/>
<path fill="none" stroke="#EC008C" stroke-width="10" d="M297,178.1c0,0,0-72,72-72s72,0,72,0s72,0,72,72"/>
<path fill="none" stroke="#FFF200" stroke-width="10" d="M589,178.1c0,0,0-72,72-72s72,0,72,0s72,0,72,72"/>
<path fill="#00AEEF" d="M5,283.7c0,0,0-72,72-72s72,0,72,0s72,0,72,72"/>
<path fill="#EC008C" d="M297,283.7c0,0,0-72,72-72s72,0,72,0s72,0,72,72"/>
<path fill="#FFF200" d="M589,283.7c0,0,0-72,72-72s72,0,72,0s72,0,72,72"/>
<path fill="#00AEEF" stroke="#EC008C" stroke-width="10" d="M5,494.9c0,0,0-72,72-72s72,0,72,0s72,0,72,72"/>
<path fill="#EC008C" stroke="#FFF200" stroke-width="10" d="M297,494.9c0,0,0-72,72-72s72,0,72,0s72,0,72,72"/>
<path fill="#FFF200" stroke="#00AEEF" stroke-width="10" d="M589,494.9c0,0,0-72,72-72s72,0,72,0s72,0,72,72"/>
<path opacity="0.5" fill="#00AEEF" stroke="#EC008C" stroke-width="10" d="M5,600.5c0,0,0-72,72-72s72,0,72,0s72,0,72,72"/>
<path opacity="0.5" fill="#EC008C" stroke="#FFF200" stroke-width="10" d="M297,600.5c0,0,0-72,72-72s72,0,72,0s72,0,72,72"/>
<path opacity="0.5" fill="#FFF200" stroke="#00AEEF" stroke-width="10" d="M589,600.5c0,0,0-72,72-72s72,0,72,0s72,0,72,72"/>
<path fill="#00AEEF" stroke="#EC008C" d="M5,389.3c0,0,0-72,72-72s72,0,72,0s72,0,72,72"/>
<path fill="#EC008C" stroke="#FFF200" d="M297,389.3c0,0,0-72,72-72s72,0,72,0s72,0,72,72"/>
<path fill="#FFF200" stroke="#00AEEF" d="M589,389.3c0,0,0-72,72-72s72,0,72,0s72,0,72,72"/>
</svg>
