<?xml version="1.0" encoding="utf-8"?>
<!-- Generator: Adobe Illustrator 14.0.0, SVG Export Plug-In . SVG Version: 6.00 Build 43363)  -->
<!DOCTYPE svg PUBLIC "-//W3C//DTD SVG 1.1//EN" "http://www.w3.org/Graphics/SVG/1.1/DTD/svg11.dtd">
<svg version="1.1" id="Layer_1" xmlns="http://www.w3.org/2000/svg" xmlns:xlink="http://www.w3.org/1999/xlink" x="0px" y="0px"
	 width="300px" height="300px" viewBox="0 0 300 300" enable-background="new 0 0 300 300" xml:space="preserve">
<path fill="#FEE900" d="M264.03,134.296l-73.785-12.754l0.595-3.441c0.157-0.917-0.096-1.857-0.695-2.57
	c-0.599-0.713-1.484-1.124-2.414-1.124h-3.316l39.374-51.75c0.943-1.24,0.844-2.982-0.238-4.102
	c-1.084-1.124-2.821-1.288-4.092-0.39l-61.191,43.157l-2.013-2.854c-0.536-0.762-1.381-1.246-2.309-1.326
	c-0.922-0.08-1.845,0.254-2.503,0.913l-2.342,2.344l-8.75-64.436c-0.21-1.543-1.514-2.703-3.072-2.731c-0.019,0-0.038,0-0.058,0
	c-1.532,0-2.847,1.104-3.109,2.62l-12.753,73.785l-3.44-0.596c-0.917-0.161-1.858,0.096-2.571,0.697
	c-0.712,0.599-1.124,1.484-1.124,2.415v3.315L62.473,76.09c-1.238-0.941-2.982-0.842-4.104,0.24
	c-1.121,1.082-1.285,2.818-0.387,4.091l43.155,61.191l-2.853,2.013c-0.763,0.536-1.248,1.382-1.327,2.31
	c-0.079,0.929,0.255,1.843,0.914,2.501l2.344,2.344l-64.436,8.751c-1.542,0.209-2.703,1.514-2.731,3.07
	c-0.029,1.56,1.084,2.902,2.619,3.168l73.785,12.754l-0.596,3.439c-0.158,0.918,0.095,1.86,0.697,2.572
	c0.599,0.713,1.483,1.123,2.415,1.123h3.314l-39.376,51.75c-0.941,1.24-0.841,2.98,0.242,4.103c1.081,1.122,2.818,1.285,4.091,0.388
	l61.19-43.156l2.016,2.854c0.535,0.763,1.382,1.248,2.308,1.327c0.926,0.08,1.844-0.255,2.502-0.913l2.342-2.342l8.75,64.431
	c0.21,1.543,1.513,2.704,3.071,2.732c0.02,0,0.039,0,0.058,0c1.533,0,2.85-1.104,3.11-2.618l12.753-73.785l3.441,0.595
	c0.915,0.16,1.859-0.095,2.569-0.695c0.716-0.601,1.126-1.484,1.126-2.414v-3.313l51.748,39.373c1.239,0.94,2.981,0.84,4.102-0.239
	c1.122-1.08,1.288-2.819,0.39-4.091l-43.155-61.192l2.852-2.014c0.763-0.537,1.25-1.382,1.327-2.31
	c0.08-0.929-0.253-1.846-0.912-2.503l-2.343-2.342l64.433-8.75c1.544-0.209,2.704-1.514,2.732-3.071
	C266.677,135.905,265.563,134.561,264.03,134.296z"/>
</svg>
