<?xml version="1.0" encoding="utf-8"?>
<!-- Generator: Adobe Illustrator 14.0.0, SVG Export Plug-In . SVG Version: 6.00 Build 43363)  -->
<!DOCTYPE svg PUBLIC "-//W3C//DTD SVG 1.1//EN" "http://www.w3.org/Graphics/SVG/1.1/DTD/svg11.dtd">
<svg version="1.1" id="Layer_1" xmlns="http://www.w3.org/2000/svg" xmlns:xlink="http://www.w3.org/1999/xlink" x="0px" y="0px"
	 width="300px" height="300px" viewBox="0 0 300 300" enable-background="new 0 0 300 300" xml:space="preserve">
<path fill="#F26632" d="M260.566,135.684l-96.14-96.142c-3.8-3.797-8.951-5.932-14.322-5.932c-5.372,0-10.523,2.134-14.32,5.932
	l-96.145,96.145c-3.797,3.797-5.932,8.949-5.932,14.32c0,5.373,2.135,10.523,5.932,14.321l96.143,96.14
	c3.954,3.955,9.136,5.932,14.322,5.932c5.182,0,10.365-1.977,14.319-5.932l96.143-96.143c3.8-3.798,5.932-8.948,5.932-14.32
	C266.498,144.633,264.366,139.482,260.566,135.684z"/>
</svg>
