<?xml version="1.0" encoding="utf-8"?>
<!-- Generator: Adobe Illustrator 14.0.0, SVG Export Plug-In . SVG Version: 6.00 Build 43363)  -->
<!DOCTYPE svg PUBLIC "-//W3C//DTD SVG 1.1//EN" "http://www.w3.org/Graphics/SVG/1.1/DTD/svg11.dtd">
<svg version="1.1" id="Layer_1" xmlns="http://www.w3.org/2000/svg" xmlns:xlink="http://www.w3.org/1999/xlink" x="0px" y="0px"
	 width="300px" height="300px" viewBox="0 0 300 300" enable-background="new 0 0 300 300" xml:space="preserve">
<g>
	<path fill="#E40C78" d="M125.498,286.413c-3.052,0-6.133-0.509-9.125-1.561c-11.028-3.877-18.407-14.292-18.407-25.981v-31.499
		c-20.152,7.569-36.425,9.609-39.29,9.926c-11.63,1.275-22.78-4.924-27.835-15.462c-5.057-10.538-2.91-23.12,5.355-31.386
		l22.274-22.274c-19.604-8.898-32.553-18.963-34.8-20.764c-9.118-7.315-12.627-19.587-8.751-30.615
		c3.877-11.028,14.293-18.405,25.981-18.405h31.501c-7.57-20.156-9.612-36.427-9.926-39.29c-1.277-11.62,4.922-22.78,15.46-27.836
		c10.536-5.055,23.122-2.912,31.387,5.357l22.275,22.273c8.896-19.602,18.961-32.552,20.765-34.8
		c7.311-9.118,19.584-12.625,30.613-8.75c11.028,3.875,18.404,14.293,18.404,25.981v31.5c20.158-7.57,36.428-9.61,39.294-9.924
		c11.622-1.281,22.776,4.921,27.833,15.458c5.059,10.54,2.911,23.122-5.355,31.387l-22.272,22.275
		c19.604,8.898,32.551,18.961,34.798,20.765c9.12,7.312,12.627,19.584,8.75,30.613c-3.875,11.028-14.29,18.406-25.979,18.406
		h-31.501c7.571,20.156,9.611,36.426,9.926,39.29c1.277,11.62-4.922,22.78-15.46,27.835c-10.538,5.059-23.122,2.907-31.387-5.355
		l-22.273-22.271c-8.899,19.601-18.963,32.552-20.766,34.797C141.659,282.746,133.694,286.413,125.498,286.413L125.498,286.413z"/>
</g>
</svg>
