<?xml version="1.0" encoding="utf-8"?>
<!-- Generator: Adobe Illustrator 14.0.0, SVG Export Plug-In . SVG Version: 6.00 Build 43363)  -->
<!DOCTYPE svg PUBLIC "-//W3C//DTD SVG 1.1//EN" "http://www.w3.org/Graphics/SVG/1.1/DTD/svg11.dtd">
<svg version="1.1" id="Layer_1" xmlns="http://www.w3.org/2000/svg" xmlns:xlink="http://www.w3.org/1999/xlink" x="0px" y="0px"
	 width="300px" height="300px" viewBox="0 0 300 300" enable-background="new 0 0 300 300" xml:space="preserve">
<path fill="#6DCFF6" d="M274.45,132.843c-5.682-2.915-12.129-2.706-17.422-0.033l-39.213-67.919
	c8.467-5.681,11.064-17.058,5.724-25.866c-5.496-9.063-17.3-11.955-26.362-6.459c-5.738,3.48-8.991,9.488-9.22,15.728h-78.229
	c-0.363-10.28-8.789-18.508-19.158-18.508c-10.6,0-19.192,8.593-19.192,19.191c0,7.107,3.873,13.296,9.615,16.615L42.34,132.542
	c-0.113-0.061-0.216-0.132-0.331-0.191c-9.439-4.82-21.001-1.078-25.82,8.362c-4.823,9.439-1.083,21,8.357,25.822
	c5.691,2.908,12.146,2.685,17.438-0.009l39.079,67.689c-0.318,0.182-0.641,0.35-0.953,0.552
	c-8.886,5.777-11.411,17.666-5.632,26.551c5.775,8.888,17.661,11.414,26.549,5.637c5.495-3.57,8.548-9.477,8.721-15.565h79.338
	c0.6,10.55,9.615,18.641,20.176,18.076c10.585-0.562,18.711-9.595,18.149-20.181c-0.348-6.537-3.933-12.13-9.115-15.324
	l38.655-66.954c9.426,4.815,20.974,1.097,25.809-8.324C287.6,149.252,283.881,137.684,274.45,132.843z"/>
</svg>
