<?xml version="1.0" encoding="utf-8"?>
<!-- Generator: Adobe Illustrator 14.0.0, SVG Export Plug-In . SVG Version: 6.00 Build 43363)  -->
<!DOCTYPE svg PUBLIC "-//W3C//DTD SVG 1.1//EN" "http://www.w3.org/Graphics/SVG/1.1/DTD/svg11.dtd">
<svg version="1.1" id="Layer_1" xmlns="http://www.w3.org/2000/svg" xmlns:xlink="http://www.w3.org/1999/xlink" x="0px" y="0px"
	 width="300px" height="300px" viewBox="0 0 300 300" enable-background="new 0 0 300 300" xml:space="preserve">
<path fill="#265FAC" d="M267.272,170.107l-12.276-12.278v-23.17l8.827-8.83c2.999-2.996,2.999-7.856,0-10.854l-8.827-8.826V88.787
	c0-4.238-3.437-7.674-7.674-7.674h-17.361l-16.385-16.385V52.244c0-4.238-3.437-7.674-7.674-7.674h-12.484l-12.277-12.277
	c-2.999-2.995-7.856-2.997-10.854,0l-12.276,12.276h-23.175l-8.827-8.827c-2.997-2.997-7.855-2.997-10.853,0l-8.825,8.826
	L88.97,44.567c-2.016,0-3.954,0.796-5.39,2.211c-1.464,1.442-2.287,3.411-2.287,5.465v17.361L64.907,85.991H52.424
	c-4.238,0-7.674,3.436-7.674,7.674v12.481l-12.277,12.277c-2.997,2.996-2.997,7.854,0,10.85l12.276,12.28v23.172l-8.827,8.83
	c-2.997,2.995-2.997,7.854,0,10.85l8.826,8.829v17.361c0,4.238,3.436,7.674,7.674,7.674h17.362l16.386,16.388v12.482
	c0,4.239,3.436,7.674,7.674,7.674h12.483l12.277,12.277c1.439,1.438,3.392,2.249,5.426,2.249c2.035,0,3.987-0.811,5.427-2.249
	l12.277-12.277l23.174,0.002l8.827,8.827c2.996,2.997,7.856,2.997,10.851,0l8.831-8.827h17.359c4.239,0,7.676-3.435,7.676-7.674
	V229.78l16.385-16.388h12.484c4.237,0,7.674-3.436,7.674-7.673v-12.483l12.275-12.278
	C270.269,177.962,270.269,173.104,267.272,170.107z"/>
</svg>
