<?xml version="1.0" encoding="utf-8"?>
<!-- Generator: Adobe Illustrator 14.0.0, SVG Export Plug-In . SVG Version: 6.00 Build 43363)  -->
<!DOCTYPE svg PUBLIC "-//W3C//DTD SVG 1.1//EN" "http://www.w3.org/Graphics/SVG/1.1/DTD/svg11.dtd">
<svg version="1.1" id="Layer_1" xmlns="http://www.w3.org/2000/svg" xmlns:xlink="http://www.w3.org/1999/xlink" x="0px" y="0px"
	 width="300px" height="300px" viewBox="0 0 300 300" enable-background="new 0 0 300 300" xml:space="preserve">
<path fill="#E40C78" d="M254.319,160.521l-21.193-11.046l21.193-11.047c9.167-4.776,13.479-15.149,10.254-24.67
	c-3.222-9.521-13.066-15.474-23.402-14.174l-23.91,3.021l10.382-20.895c4.49-9.036,1.626-19.859-6.812-25.744
	c-8.441-5.885-20.046-5.153-27.61,1.737l-17.495,15.934l-4.397-22.76c-1.899-9.843-10.845-16.984-21.273-16.984
	c-10.428,0-19.373,7.141-21.275,16.984l-4.396,22.76l-17.495-15.934c-7.565-6.891-19.177-7.62-27.611-1.736
	c-8.438,5.884-11.301,16.708-6.812,25.743l10.381,20.895l-23.91-3.021c-10.341-1.3-20.179,4.654-23.402,14.174
	c-3.222,9.521,1.089,19.894,10.253,24.67l21.194,11.047l-21.194,11.046c-9.165,4.776-13.476,15.15-10.253,24.672
	c3.223,9.519,13.069,15.479,23.402,14.172l23.91-3.021l-10.381,20.896c-4.489,9.034-1.625,19.858,6.812,25.742
	c8.436,5.886,20.046,5.154,27.611-1.736l17.495-15.934l4.396,22.761c1.902,9.843,10.847,16.984,21.275,16.984
	c10.429,0,19.374-7.142,21.273-16.984l4.397-22.761l17.495,15.934c7.565,6.893,19.176,7.62,27.61,1.738
	c8.438-5.886,11.303-16.71,6.812-25.744l-10.382-20.896l23.91,3.021c10.352,1.3,20.181-4.653,23.402-14.174
	C267.798,175.672,263.486,165.298,254.319,160.521z"/>
</svg>
