<?xml version="1.0" encoding="utf-8"?>
<!-- Generator: Adobe Illustrator 14.0.0, SVG Export Plug-In . SVG Version: 6.00 Build 43363)  -->
<!DOCTYPE svg PUBLIC "-//W3C//DTD SVG 1.1//EN" "http://www.w3.org/Graphics/SVG/1.1/DTD/svg11.dtd">
<svg version="1.1" id="Layer_1" xmlns="http://www.w3.org/2000/svg" xmlns:xlink="http://www.w3.org/1999/xlink" x="0px" y="0px"
	 width="300px" height="300px" viewBox="0 0 300 300" enable-background="new 0 0 300 300" xml:space="preserve">
<path fill="#2960AC" d="M288.383,174.659l-14.446-14.447v-27.265l10.388-10.391c3.523-3.525,3.523-9.245,0-12.771l-10.388-10.387
	V78.967c0-4.986-4.047-9.03-9.033-9.03h-20.431l-19.277-19.279V35.963c0-4.986-4.043-9.029-9.034-9.029h-14.69l-14.446-14.446
	c-3.527-3.524-9.243-3.526-12.771,0l-14.446,14.446h-27.27l-10.386-10.387c-3.527-3.526-9.245-3.526-12.771,0L98.996,26.934h-20.43
	c-2.372,0-4.653,0.938-6.341,2.603c-1.722,1.697-2.69,4.014-2.69,6.431v20.431L50.252,75.681H35.563
	c-4.987,0-9.031,4.043-9.031,9.029v14.688l-14.445,14.446c-3.526,3.524-3.526,9.244,0,12.768l14.445,14.448v27.27l-10.386,10.388
	c-3.526,3.527-3.526,9.243,0,12.771l10.386,10.388v20.431c0,4.985,4.043,9.028,9.031,9.028h20.431l19.282,19.286v14.688
	c0,4.989,4.043,9.029,9.029,9.029h14.69l14.446,14.446c1.692,1.695,3.992,2.646,6.385,2.646c2.396,0,4.691-0.951,6.386-2.646
	l14.445-14.446l27.272,0.004l10.388,10.388c3.522,3.527,9.242,3.527,12.77,0l10.388-10.388h20.435c4.981,0,9.029-4.039,9.029-9.03
	v-20.43l19.277-19.281h14.695c4.986,0,9.029-4.043,9.029-9.034V201.88l14.446-14.451
	C291.906,183.901,291.906,178.187,288.383,174.659z"/>
</svg>
