<?xml version="1.0" encoding="utf-8"?>
<!-- Generator: Adobe Illustrator 14.0.0, SVG Export Plug-In . SVG Version: 6.00 Build 43363)  -->
<!DOCTYPE svg PUBLIC "-//W3C//DTD SVG 1.1//EN" "http://www.w3.org/Graphics/SVG/1.1/DTD/svg11.dtd">
<svg version="1.1" id="Layer_1" xmlns="http://www.w3.org/2000/svg" xmlns:xlink="http://www.w3.org/1999/xlink" x="0px" y="0px"
	 width="344.5px" height="300px" viewBox="0 0 344.5 300" enable-background="new 0 0 344.5 300" xml:space="preserve">
<path fill="#010101" d="M344.534,151.679c-0.404-4.073-4.036-7.047-8.106-6.646c-0.194,0.019-3.936,0.358-11.23,0.568
	C322.875,88.195,265.178,42.08,194.576,42.08c-38.508,0-73.175,13.722-97.116,35.508L67.488,52.395
	c-3.135-2.634-7.812-2.229-10.446,0.905c-2.635,3.135-2.229,7.812,0.904,10.446l29.185,24.532
	c-3.749,4.426-7.102,9.094-10.015,13.969L23.759,68.934c-3.475-2.168-8.047-1.109-10.216,2.362
	c-2.168,3.474-1.111,8.047,2.362,10.216l51.298,32.028c-17.868-3.957-36.619-8.382-56.278-13.345
	c-3.971-1.004-8.001,1.403-9.003,5.374c-1.002,3.97,1.404,8.001,5.374,9.003c20.683,5.222,40.338,9.851,59.024,13.977
	c-1.599,6.683-2.446,13.584-2.446,20.646c0,59.062,58.633,107.113,130.702,107.113c67.397,0,123.039-42.024,129.971-95.777
	c8.09-0.248,12.52-0.658,13.351-0.741C341.969,159.381,344.938,155.751,344.534,151.679z M194.576,56.907
	c62.448,0,113.509,39.55,115.786,88.852c-27.553-0.14-76.981-2.543-148.491-14.028l-53.02-44.566
	C130.063,68.587,160.64,56.907,194.576,56.907z M98.412,97.76l34.534,29.029c-7.671-1.386-15.559-2.871-23.666-4.459L89.646,110.07
	C92.179,105.777,95.111,101.662,98.412,97.76z M194.576,241.479c-63.893,0-115.875-41.399-115.875-92.286
	c0-5.984,0.728-11.834,2.1-17.505c30.753,6.535,58.678,11.643,83.797,15.615c-1.45,5.14-2.183,10.435-2.183,15.827
	c0,32.514,26.45,58.965,58.962,58.965c32.514,0,58.965-26.451,58.965-58.965c0-1.07-0.032-2.146-0.095-3.229
	c11.511,0.566,21.257,0.783,29.301,0.812C302.408,206.184,253.571,241.479,194.576,241.479z"/>
</svg>
