<?xml version="1.0" encoding="utf-8"?>
<!-- Generator: Adobe Illustrator 14.0.0, SVG Export Plug-In . SVG Version: 6.00 Build 43363)  -->
<!DOCTYPE svg PUBLIC "-//W3C//DTD SVG 1.1//EN" "http://www.w3.org/Graphics/SVG/1.1/DTD/svg11.dtd">
<svg version="1.1" id="Layer_1" xmlns="http://www.w3.org/2000/svg" xmlns:xlink="http://www.w3.org/1999/xlink" x="0px" y="0px"
	 width="344.5px" height="300px" viewBox="0 0 344.5 300" enable-background="new 0 0 344.5 300" xml:space="preserve">
<path fill="#FFFFFF" d="M99.889,173.903c0,54.257,53.108,98.237,118.626,98.237c65.523,0,118.625-43.98,118.625-98.237
	c0-54.256-53.102-98.235-118.625-98.235C152.997,75.668,99.889,119.647,99.889,173.903z"/>
<path fill="#010101" d="M255.583,109.642c-34.41,0-62.406,27.997-62.406,62.409s27.996,62.408,62.406,62.408
	C290,234.459,318,206.463,318,172.051S290,109.642,255.583,109.642z"/>
<path fill="#010101" d="M218.515,68.307c-38.877,0-73.695,14.839-96.824,38.111L38.394,22.298c-2.861-2.89-7.521-2.913-10.41-0.051
	c-2.889,2.861-2.911,7.521-0.051,10.41l84.074,84.905c-2.688,3.558-5.131,7.259-7.306,11.085L12.876,73.077
	c-3.477-2.104-8.002-0.991-10.109,2.487c-2.104,3.478-0.991,8.004,2.487,10.108l93.141,56.366c-1.406,3.715-2.57,7.519-3.483,11.397
	L9.453,126.115c-3.874-1.237-8.015,0.898-9.252,4.771c-1.238,3.872,0.897,8.015,4.77,9.253l87.744,28.051
	c-0.121,1.893-0.186,3.797-0.186,5.714c0,58.228,56.518,105.599,125.987,105.599S344.5,232.131,344.5,173.903
	C344.5,115.678,287.983,68.307,218.515,68.307z M218.515,264.779c-61.352,0-111.265-40.767-111.265-90.876
	c0-3.024,0.19-6.012,0.546-8.961c0.166-0.609,0.258-1.224,0.266-1.831c1.023-7.028,3.007-13.819,5.887-20.266
	c0.26-0.432,0.472-0.879,0.635-1.336c16.014-34.155,56.55-58.48,103.932-58.48c61.352,0,111.264,40.766,111.264,90.874
	C329.778,224.013,279.866,264.779,218.515,264.779z"/>
</svg>
